<mxfile host="app.diagrams.net" modified="2023-05-31T01:46:54.786Z" agent="Mozilla/5.0 (Windows NT 10.0; Win64; x64) AppleWebKit/537.36 (KHTML, like Gecko) Chrome/113.0.0.0 Safari/537.36" etag="pmE4oTosnQbETFGawiX9" version="21.2.7" type="device">
  <diagram name="PÃ¡gina-1" id="ZGbZzzmDmX2CSBNvLCrj">
    <mxGraphModel dx="1088" dy="1210" grid="1" gridSize="10" guides="1" tooltips="1" connect="1" arrows="1" fold="1" page="1" pageScale="1" pageWidth="827" pageHeight="1169" math="0" shadow="0">
      <root>
        <mxCell id="0" />
        <mxCell id="1" parent="0" />
        <mxCell id="FJoHGmMMYVgKPLkY-pn6-3" value="" style="edgeStyle=none;curved=1;rounded=0;orthogonalLoop=1;jettySize=auto;html=1;fontSize=12;startSize=8;endSize=8;" edge="1" parent="1" source="FJoHGmMMYVgKPLkY-pn6-1" target="FJoHGmMMYVgKPLkY-pn6-2">
          <mxGeometry relative="1" as="geometry" />
        </mxCell>
        <mxCell id="FJoHGmMMYVgKPLkY-pn6-1" value="INICIO" style="ellipse;whiteSpace=wrap;html=1;fontSize=16;" vertex="1" parent="1">
          <mxGeometry x="294" y="30" width="136" height="80" as="geometry" />
        </mxCell>
        <mxCell id="FJoHGmMMYVgKPLkY-pn6-5" value="" style="edgeStyle=none;curved=1;rounded=0;orthogonalLoop=1;jettySize=auto;html=1;fontSize=12;startSize=8;endSize=8;" edge="1" parent="1" source="FJoHGmMMYVgKPLkY-pn6-2" target="FJoHGmMMYVgKPLkY-pn6-4">
          <mxGeometry relative="1" as="geometry" />
        </mxCell>
        <mxCell id="FJoHGmMMYVgKPLkY-pn6-2" value="P" style="shape=parallelogram;perimeter=parallelogramPerimeter;whiteSpace=wrap;html=1;fixedSize=1;fontSize=16;" vertex="1" parent="1">
          <mxGeometry x="272" y="130" width="180" height="60" as="geometry" />
        </mxCell>
        <mxCell id="FJoHGmMMYVgKPLkY-pn6-7" value="" style="edgeStyle=none;curved=1;rounded=0;orthogonalLoop=1;jettySize=auto;html=1;fontSize=12;startSize=8;endSize=8;" edge="1" parent="1" source="FJoHGmMMYVgKPLkY-pn6-4" target="FJoHGmMMYVgKPLkY-pn6-6">
          <mxGeometry relative="1" as="geometry" />
        </mxCell>
        <mxCell id="FJoHGmMMYVgKPLkY-pn6-4" value="aux = ( &quot; &quot; )&lt;br&gt;i = (p.length) -1" style="whiteSpace=wrap;html=1;fontSize=16;" vertex="1" parent="1">
          <mxGeometry x="270" y="220" width="170" height="70" as="geometry" />
        </mxCell>
        <mxCell id="FJoHGmMMYVgKPLkY-pn6-9" value="" style="edgeStyle=none;curved=1;rounded=0;orthogonalLoop=1;jettySize=auto;html=1;fontSize=12;startSize=8;endSize=8;" edge="1" parent="1" source="FJoHGmMMYVgKPLkY-pn6-6" target="FJoHGmMMYVgKPLkY-pn6-8">
          <mxGeometry relative="1" as="geometry" />
        </mxCell>
        <mxCell id="FJoHGmMMYVgKPLkY-pn6-19" value="" style="edgeStyle=none;curved=1;rounded=0;orthogonalLoop=1;jettySize=auto;html=1;fontSize=12;startSize=8;endSize=8;" edge="1" parent="1" source="FJoHGmMMYVgKPLkY-pn6-6" target="FJoHGmMMYVgKPLkY-pn6-18">
          <mxGeometry relative="1" as="geometry" />
        </mxCell>
        <mxCell id="FJoHGmMMYVgKPLkY-pn6-6" value="while&lt;br&gt;&lt;br&gt;i &amp;gt;= 0" style="rhombus;whiteSpace=wrap;html=1;fontSize=16;" vertex="1" parent="1">
          <mxGeometry x="237" y="330" width="250" height="130" as="geometry" />
        </mxCell>
        <mxCell id="FJoHGmMMYVgKPLkY-pn6-12" value="" style="edgeStyle=none;curved=1;rounded=0;orthogonalLoop=1;jettySize=auto;html=1;fontSize=12;startSize=8;endSize=8;" edge="1" parent="1" source="FJoHGmMMYVgKPLkY-pn6-8" target="FJoHGmMMYVgKPLkY-pn6-10">
          <mxGeometry relative="1" as="geometry" />
        </mxCell>
        <mxCell id="FJoHGmMMYVgKPLkY-pn6-8" value="aux = aux + p[ i ]" style="whiteSpace=wrap;html=1;fontSize=16;" vertex="1" parent="1">
          <mxGeometry x="266" y="520" width="185" height="60" as="geometry" />
        </mxCell>
        <mxCell id="FJoHGmMMYVgKPLkY-pn6-10" value="i++" style="whiteSpace=wrap;html=1;fontSize=16;" vertex="1" parent="1">
          <mxGeometry x="295" y="620" width="120" height="60" as="geometry" />
        </mxCell>
        <mxCell id="FJoHGmMMYVgKPLkY-pn6-14" value="" style="endArrow=classic;html=1;rounded=0;fontSize=12;startSize=8;endSize=8;curved=1;exitX=0.5;exitY=1;exitDx=0;exitDy=0;" edge="1" parent="1" source="FJoHGmMMYVgKPLkY-pn6-10">
          <mxGeometry width="50" height="50" relative="1" as="geometry">
            <mxPoint x="200" y="470" as="sourcePoint" />
            <mxPoint x="355" y="750" as="targetPoint" />
          </mxGeometry>
        </mxCell>
        <mxCell id="FJoHGmMMYVgKPLkY-pn6-15" value="" style="endArrow=classic;html=1;rounded=0;fontSize=12;startSize=8;endSize=8;curved=1;" edge="1" parent="1">
          <mxGeometry width="50" height="50" relative="1" as="geometry">
            <mxPoint x="350" y="750" as="sourcePoint" />
            <mxPoint x="240" y="750" as="targetPoint" />
          </mxGeometry>
        </mxCell>
        <mxCell id="FJoHGmMMYVgKPLkY-pn6-16" value="" style="endArrow=classic;html=1;rounded=0;fontSize=12;startSize=8;endSize=8;curved=1;" edge="1" parent="1">
          <mxGeometry width="50" height="50" relative="1" as="geometry">
            <mxPoint x="240" y="750" as="sourcePoint" />
            <mxPoint x="240" y="400" as="targetPoint" />
          </mxGeometry>
        </mxCell>
        <mxCell id="FJoHGmMMYVgKPLkY-pn6-17" value="" style="endArrow=classic;html=1;rounded=0;fontSize=12;startSize=8;endSize=8;curved=1;entryX=0;entryY=0.5;entryDx=0;entryDy=0;" edge="1" parent="1" target="FJoHGmMMYVgKPLkY-pn6-6">
          <mxGeometry width="50" height="50" relative="1" as="geometry">
            <mxPoint x="240" y="400" as="sourcePoint" />
            <mxPoint x="250" y="420" as="targetPoint" />
          </mxGeometry>
        </mxCell>
        <mxCell id="FJoHGmMMYVgKPLkY-pn6-21" value="" style="edgeStyle=none;curved=1;rounded=0;orthogonalLoop=1;jettySize=auto;html=1;fontSize=12;startSize=8;endSize=8;" edge="1" parent="1" source="FJoHGmMMYVgKPLkY-pn6-18" target="FJoHGmMMYVgKPLkY-pn6-20">
          <mxGeometry relative="1" as="geometry" />
        </mxCell>
        <mxCell id="FJoHGmMMYVgKPLkY-pn6-18" value="" style="shape=waypoint;sketch=0;size=6;pointerEvents=1;points=[];fillColor=default;resizable=0;rotatable=0;perimeter=centerPerimeter;snapToPoint=1;fontSize=16;" vertex="1" parent="1">
          <mxGeometry x="620" y="385" width="20" height="20" as="geometry" />
        </mxCell>
        <mxCell id="FJoHGmMMYVgKPLkY-pn6-20" value="" style="shape=waypoint;sketch=0;size=6;pointerEvents=1;points=[];fillColor=default;resizable=0;rotatable=0;perimeter=centerPerimeter;snapToPoint=1;fontSize=16;" vertex="1" parent="1">
          <mxGeometry x="620" y="450" width="20" height="20" as="geometry" />
        </mxCell>
        <mxCell id="FJoHGmMMYVgKPLkY-pn6-22" value="La parabra Invertida es ( aux )" style="shape=document;whiteSpace=wrap;html=1;boundedLbl=1;fontSize=16;" vertex="1" parent="1">
          <mxGeometry x="550" y="470" width="160" height="140" as="geometry" />
        </mxCell>
        <mxCell id="FJoHGmMMYVgKPLkY-pn6-23" value="" style="edgeStyle=none;curved=1;rounded=0;orthogonalLoop=1;jettySize=auto;html=1;fontSize=12;startSize=8;endSize=8;" edge="1" parent="1" source="FJoHGmMMYVgKPLkY-pn6-24" target="FJoHGmMMYVgKPLkY-pn6-26">
          <mxGeometry relative="1" as="geometry" />
        </mxCell>
        <mxCell id="FJoHGmMMYVgKPLkY-pn6-24" value="INICIO" style="ellipse;whiteSpace=wrap;html=1;fontSize=16;" vertex="1" parent="1">
          <mxGeometry x="1046" y="40" width="136" height="80" as="geometry" />
        </mxCell>
        <mxCell id="FJoHGmMMYVgKPLkY-pn6-25" value="" style="edgeStyle=none;curved=1;rounded=0;orthogonalLoop=1;jettySize=auto;html=1;fontSize=12;startSize=8;endSize=8;" edge="1" parent="1" source="FJoHGmMMYVgKPLkY-pn6-26" target="FJoHGmMMYVgKPLkY-pn6-28">
          <mxGeometry relative="1" as="geometry" />
        </mxCell>
        <mxCell id="FJoHGmMMYVgKPLkY-pn6-26" value="P" style="shape=parallelogram;perimeter=parallelogramPerimeter;whiteSpace=wrap;html=1;fixedSize=1;fontSize=16;" vertex="1" parent="1">
          <mxGeometry x="1024" y="140" width="180" height="60" as="geometry" />
        </mxCell>
        <mxCell id="FJoHGmMMYVgKPLkY-pn6-27" value="" style="edgeStyle=none;curved=1;rounded=0;orthogonalLoop=1;jettySize=auto;html=1;fontSize=12;startSize=8;endSize=8;" edge="1" parent="1" source="FJoHGmMMYVgKPLkY-pn6-28">
          <mxGeometry relative="1" as="geometry">
            <mxPoint x="1116.2791023842915" y="341.18513323983166" as="targetPoint" />
          </mxGeometry>
        </mxCell>
        <mxCell id="FJoHGmMMYVgKPLkY-pn6-28" value="CE = (p.slice(1, p.length -1))" style="whiteSpace=wrap;html=1;fontSize=16;" vertex="1" parent="1">
          <mxGeometry x="1000" y="230" width="238" height="70" as="geometry" />
        </mxCell>
        <mxCell id="FJoHGmMMYVgKPLkY-pn6-39" value="" style="edgeStyle=none;curved=1;rounded=0;orthogonalLoop=1;jettySize=auto;html=1;fontSize=12;startSize=8;endSize=8;" edge="1" parent="1" target="FJoHGmMMYVgKPLkY-pn6-41">
          <mxGeometry relative="1" as="geometry">
            <mxPoint x="1382" y="405" as="sourcePoint" />
          </mxGeometry>
        </mxCell>
        <mxCell id="FJoHGmMMYVgKPLkY-pn6-42" value="mostrar palabra sin&lt;br&gt;con el primer y ultimo&amp;nbsp;&lt;br&gt;caracter eliminado" style="shape=document;whiteSpace=wrap;html=1;boundedLbl=1;fontSize=16;" vertex="1" parent="1">
          <mxGeometry x="1044" y="350" width="160" height="140" as="geometry" />
        </mxCell>
        <mxCell id="FJoHGmMMYVgKPLkY-pn6-43" style="edgeStyle=none;curved=1;rounded=0;orthogonalLoop=1;jettySize=auto;html=1;exitX=0.5;exitY=0;exitDx=0;exitDy=0;entryX=0.75;entryY=0;entryDx=0;entryDy=0;fontSize=12;startSize=8;endSize=8;" edge="1" parent="1" source="FJoHGmMMYVgKPLkY-pn6-42" target="FJoHGmMMYVgKPLkY-pn6-42">
          <mxGeometry relative="1" as="geometry" />
        </mxCell>
      </root>
    </mxGraphModel>
  </diagram>
</mxfile>
